<svg xmlns="http://www.w3.org/2000/svg" xmlns:xlink="http://www.w3.org/1999/xlink" version="1.1" width="1000" height="1000" viewBox="0 0 1000 1000" xml:space="preserve">
<desc>Created with Fabric.js 3.5.0</desc>
<defs>
</defs>
<rect x="0" y="0" width="100%" height="100%" fill="#ffffff"/>
<g transform="matrix(18.5761 0 0 18.5761 430.7779 313.2853)" id="563439">
<path style="stroke: none; stroke-width: 1; stroke-dasharray: none; stroke-linecap: butt; stroke-dashoffset: 0; stroke-linejoin: miter; stroke-miterlimit: 4; is-custom-font: none; font-file-url: none; fill: rgb(0,0,0); fill-rule: nonzero; opacity: 1;" vector-effect="non-scaling-stroke" transform=" translate(-15.9993, -16.0013)" d="M 19.76 13.745 c -3.197 1.64 -6.776 -1.417 -5.661 -4.833 c 1.12 -3.417 5.813 -3.767 7.423 -0.552 c 1.005 1.973 0.219 4.389 -1.761 5.389 z M 15.469 0.76 c 3.291 -1.197 7.057 -1.135 9.875 1.313 c 0.593 0.489 1.063 1.115 1.364 1.828 c 0.281 0.916 -1 -0.095 -1.172 -0.224 c -0.891 -0.609 -1.853 -1.099 -2.869 -1.464 c -5.552 -1.697 -10.803 1.396 -14.047 6.208 c -1.323 2.12 -2.333 4.423 -3 6.833 c -0.063 0.297 -0.156 0.584 -0.281 0.86 c -0.145 0.271 -0.068 -0.735 -0.068 -0.765 c 0.12 -1.005 0.313 -2.005 0.573 -2.985 c 1.505 -5.244 4.839 -9.609 9.625 -11.609 z M 15.516 28.755 v -11.687 c 0.333 0.036 0.645 0.052 0.979 0.052 c 1.516 0.005 3 -0.412 4.297 -1.193 v 12.823 c 0 1.1 -0.204 1.907 -0.699 2.439 c -0.495 0.541 -1.197 0.839 -1.932 0.812 c -0.724 0.027 -1.421 -0.271 -1.907 -0.812 c -0.489 -0.537 -0.744 -1.349 -0.744 -2.433 z" stroke-linecap="round"/>
</g>
</svg>